<svg viewBox="0 0 768 192" fill="none" stroke-linecap="square" stroke-miterlimit="10" xmlns="http://www.w3.org/2000/svg"><clipPath id="a"><path d="M0 0h768v192H0V0z"/></clipPath><g clip-path="url(#a)"><path fill="none" d="M0 0h768v192H0z"/><path fill="none" d="M28.8 19.2h259.213v115.213H28.8z"/><path fill="#2979ff" d="M73.977 42.732h43.578v12.281H86.93v16.703h27.563v12.297H86.93v27.453H73.977V42.732zm86.595 70.266q-9.984 0-18.25-4.75-8.25-4.75-13-12.954-4.75-8.218-4.75-18.203 0-9.984 4.75-18.187 4.75-8.203 13-12.953 8.266-4.75 18.25-4.75 15.547 0 25.719 11.218l-9.11 8.844q-6.624-7.781-16.515-7.781-6.438 0-11.719 2.937-5.281 2.922-8.312 8.297-3.016 5.375-3.016 12.375 0 7.016 3.016 12.39 3.03 5.376 8.312 8.313 5.281 2.922 11.719 2.922 10.844 0 18.14-9.031l9.22 8.734q-5.094 6.157-12.063 9.375-6.953 3.204-15.39 3.204zm39.453-70.266h24.188q6.531 0 11.906 2.734 5.375 2.735 8.438 7.688 3.078 4.937 3.078 11.265 0 6.344-3.078 11.344-3.063 4.985-8.438 7.719t-11.906 2.734h-11.235v25.25h-12.953V42.732zm24.578 31.203q4.797 0 7.532-2.781 2.734-2.797 2.734-6.735 0-3.921-2.734-6.656-2.735-2.75-7.532-2.75h-11.625v18.922h11.625z"/><path fill="#0cce6b" d="M360 57.6h115.213v43.213H360z" fill-rule="evenodd"/><path fill="#000" d="M401.922 84.225q-1.36 0-2.5-.656t-1.828-1.797q-.672-1.14-.672-2.531 0-1.407.672-2.547.687-1.14 1.828-1.781 1.14-.657 2.5-.657 1.094 0 2.015.39.922.376 1.563 1.063l-1.016 1.016q-.968-1.094-2.562-1.094-.922 0-1.75.453-.813.438-1.297 1.266-.469.828-.469 1.89 0 1.063.485 1.891.484.813 1.296 1.266.813.437 1.75.437 1.516 0 2.454-.953.312-.281.515-.734.203-.453.281-1h-3.28V78.85h4.64q.078.453.078.766 0 .906-.281 1.734-.282.813-.89 1.438-.642.703-1.532 1.078-.89.359-2 .359zm10.869 0q-1.391 0-2.532-.672-1.125-.672-1.78-1.812-.642-1.141-.642-2.5 0-1.375.641-2.516.656-1.14 1.781-1.797 1.141-.672 2.532-.672 1.39 0 2.515.672 1.125.656 1.766 1.797.64 1.14.64 2.516 0 1.359-.64 2.5-.64 1.14-1.766 1.812-1.125.672-2.515.672zm0-1.39q.953 0 1.75-.454.796-.468 1.25-1.281.468-.828.468-1.86 0-1.046-.468-1.859-.454-.828-1.25-1.281-.797-.469-1.75-.469-.97 0-1.766.469-.781.453-1.25 1.281-.453.813-.453 1.86 0 1.03.453 1.859.469.813 1.25 1.281.797.453 1.766.453zm10.955 1.39q-1.39 0-2.531-.672-1.125-.672-1.781-1.812-.64-1.141-.64-2.5 0-1.375.64-2.516.656-1.14 1.781-1.797 1.14-.672 2.531-.672 1.39 0 2.516.672 1.125.656 1.765 1.797.641 1.14.641 2.516 0 1.359-.64 2.5-.641 1.14-1.766 1.812-1.125.672-2.516.672zm0-1.39q.953 0 1.75-.454.797-.468 1.25-1.281.469-.828.469-1.86 0-1.046-.469-1.859-.453-.828-1.25-1.281-.797-.469-1.75-.469-.969 0-1.765.469-.782.453-1.25 1.281-.454.813-.454 1.86 0 1.03.454 1.859.468.813 1.25 1.281.796.453 1.765.453zm6.62-8.376h3.047q1.485 0 2.578.61 1.11.594 1.704 1.687.593 1.078.593 2.485 0 1.39-.593 2.484-.594 1.078-1.704 1.688-1.093.593-2.578.593h-3.047V74.46zm3.016 8.157q1.625 0 2.516-.891.906-.906.906-2.484 0-1.594-.906-2.485-.89-.906-2.516-.906h-1.547v6.766h1.547z"/><path fill="#ffa400" d="M475.2 57.6h124.787v43.213H475.2z" fill-rule="evenodd"/><path fill="#000" d="M517.587 66.46h1.734l4.313 7.015h.078l-.078-1.843V66.46h1.453v9.547h-1.516l-4.531-7.375h-.078l.078 1.843v5.532h-1.453V66.46zm9.663 0h5.78v1.39h-4.312v2.688h3.891v1.39h-3.89v2.688h4.312v1.39h-5.781V66.46zm7.623 0h5.782v1.39h-4.313v2.688h3.89v1.39h-3.89v2.688h4.313v1.39h-5.782V66.46zm7.624 0h3.047q1.484 0 2.578.61 1.11.593 1.703 1.687.594 1.078.594 2.484 0 1.39-.594 2.484-.594 1.079-1.703 1.688-1.094.594-2.578.594h-3.047V66.46zm3.016 8.156q1.625 0 2.515-.89.906-.907.906-2.485 0-1.594-.906-2.484-.89-.907-2.515-.907h-1.547v6.766h1.547zm9.361 1.61q-1.187 0-2.14-.688-.953-.703-1.313-1.953l1.375-.563q.22.797.766 1.313.547.5 1.312.5.72 0 1.22-.375t.5-1.031q0-.594-.438-.985-.438-.39-1.516-.765l-.594-.22q-.984-.343-1.625-.952-.64-.625-.64-1.657 0-.703.375-1.296.375-.61 1.062-.954.688-.343 1.563-.343 1.234 0 1.968.609.75.594 1.016 1.36l-1.312.562q-.141-.484-.563-.828-.422-.344-1.11-.344-.64 0-1.093.344-.453.344-.453.875 0 .5.406.828.406.312 1.25.61l.61.218q1.234.422 1.89 1.11.672.671.672 1.812 0 .922-.469 1.562-.469.625-1.219.938-.734.312-1.5.312zM491.15 82.46h1.47v9.547h-1.47V82.46zm3.613 0h1.968l2.797 7.265h.078l2.797-7.265h1.969v9.547h-1.438v-5.391l.079-1.703h-.079l-2.78 7.094h-1.173l-2.781-7.094h-.078l.078 1.703v5.39h-1.437V82.46zm11.768 0h3.281q.86 0 1.563.375.719.375 1.14 1.047.422.656.422 1.5 0 .843-.421 1.515-.422.657-1.141 1.032-.703.375-1.563.375H508v3.703h-1.469V82.46zm3.313 4.453q.734 0 1.187-.453.453-.469.453-1.078 0-.61-.453-1.063-.453-.469-1.187-.469H508v3.063h1.844zm4.59-4.453h3.345q.875 0 1.562.375.703.375 1.11 1.047.406.656.406 1.5 0 .953-.625 1.703-.61.734-1.547.984l-.016.078 2.625 3.782v.078h-1.687l-2.547-3.75h-1.156v3.75h-1.47V82.46zm3.313 4.453q.688 0 1.157-.438.484-.437.484-1.109 0-.61-.438-1.062-.437-.47-1.156-.47h-1.89v3.079h1.843zm9.287 5.312q-1.39 0-2.532-.671-1.125-.672-1.78-1.813-.641-1.14-.641-2.5 0-1.375.64-2.516.656-1.14 1.781-1.796 1.141-.672 2.532-.672 1.39 0 2.515.672 1.125.656 1.766 1.796.64 1.141.64 2.516 0 1.36-.64 2.5t-1.766 1.813q-1.125.671-2.515.671zm0-1.39q.953 0 1.75-.453.797-.47 1.25-1.282.468-.828.468-1.859 0-1.047-.468-1.86-.453-.827-1.25-1.28-.797-.47-1.75-.47-.97 0-1.766.47-.781.453-1.25 1.28-.453.813-.453 1.86 0 1.031.453 1.86.469.812 1.25 1.28.797.454 1.766.454zm5.33-8.375h1.593l2.156 6.344.344 1.078h.078l.36-1.078 2.25-6.344h1.593l-3.468 9.547h-1.516l-3.39-9.547zm9.646 0h5.782v1.39h-4.313v2.688h3.89v1.39h-3.89v2.688h4.313v1.39h-5.782V82.46zm7.624 0h1.969l2.797 7.265h.078l2.797-7.265h1.968v9.547h-1.437v-5.391l.078-1.703h-.078l-2.781 7.094h-1.172l-2.781-7.094h-.079l.079 1.703v5.39h-1.438V82.46zm11.769 0h5.781v1.39h-4.312v2.688h3.89v1.39h-3.89v2.688h4.312v1.39h-5.781V82.46zm7.623 0h1.735l4.312 7.015h.078l-.078-1.843V82.46h1.453v9.547h-1.515l-4.531-7.375h-.079l.079 1.843v5.532h-1.454V82.46zm11.616 1.39h-2.687v-1.39h6.812v1.39h-2.671v8.157h-1.454V83.85z"/><path fill="#ff4e42" d="M600.025 57.601h115.213v43.213H600.025z" fill-rule="evenodd"/><path fill="#000" d="M639.73 74.46h3.282q.859 0 1.562.376.719.375 1.14 1.047.423.656.423 1.5 0 .843-.422 1.515-.422.656-1.14 1.031-.704.375-1.563.375h-1.813v3.704h-1.469V74.46zm3.313 4.454q.734 0 1.187-.453.453-.47.453-1.078 0-.61-.453-1.063-.453-.469-1.187-.469h-1.844v3.063h1.844zm8.94 5.312q-1.391 0-2.532-.672-1.125-.671-1.78-1.812-.642-1.14-.642-2.5 0-1.375.641-2.516.656-1.14 1.781-1.797 1.141-.671 2.532-.671 1.39 0 2.515.671 1.125.657 1.766 1.797.64 1.14.64 2.516 0 1.36-.64 2.5t-1.766 1.812q-1.125.672-2.515.672zm0-1.39q.953 0 1.75-.453.796-.47 1.25-1.282.468-.828.468-1.86 0-1.046-.468-1.858-.454-.829-1.25-1.282-.797-.468-1.75-.468-.97 0-1.766.468-.781.453-1.25 1.282-.453.812-.453 1.859 0 1.031.453 1.86.469.812 1.25 1.28.797.454 1.766.454zm10.955 1.39q-1.39 0-2.531-.672-1.125-.671-1.781-1.812-.64-1.14-.64-2.5 0-1.375.64-2.516.656-1.14 1.781-1.797 1.14-.671 2.531-.671 1.39 0 2.516.671 1.125.657 1.765 1.797.641 1.14.641 2.516 0 1.36-.64 2.5-.641 1.14-1.766 1.812-1.125.672-2.516.672zm0-1.39q.953 0 1.75-.453.797-.47 1.25-1.282.469-.828.469-1.86 0-1.046-.469-1.858-.453-.829-1.25-1.282-.797-.468-1.75-.468-.969 0-1.765.468-.782.453-1.25 1.282-.454.812-.454 1.859 0 1.031.454 1.86.468.812 1.25 1.28.796.454 1.765.454zm6.62-8.375h3.344q.875 0 1.563.375.703.375 1.11 1.047.405.656.405 1.5 0 .953-.625 1.703-.609.734-1.547.984l-.015.078 2.625 3.781v.079h-1.688l-2.547-3.75h-1.156v3.75h-1.469V74.46zm3.313 4.453q.687 0 1.156-.438.485-.437.485-1.11 0-.608-.438-1.062-.437-.468-1.156-.468h-1.89v3.078h1.843z"/><path fill="none" d="M552 124.8h96v28.787h-96z"/><path fill="#434343" d="M575.883 145.615q-1.36 0-2.5-.766-1.125-.78-1.562-2.265l1.75-.72q.25.938.843 1.438.594.5 1.47.5.874 0 1.515-.53.64-.532.64-1.376 0-.828-.671-1.36-.657-.546-1.672-.546h-1.032v-1.703h.938q.86 0 1.437-.453.594-.47.594-1.297 0-.719-.531-1.156-.531-.438-1.328-.438t-1.281.422q-.47.422-.672 1.047l-1.703-.719q.343-.984 1.265-1.734.938-.75 2.39-.75 1.079 0 1.938.422.86.406 1.328 1.14.485.735.485 1.64 0 .938-.453 1.595-.453.656-1.11 1v.093q.86.36 1.407 1.11.562.734.562 1.78 0 1.048-.531 1.876-.516.812-1.438 1.281-.922.469-2.078.469zm6.923-.172q-.547 0-.937-.375-.375-.39-.375-.937 0-.532.375-.907.39-.39.937-.39.563 0 .922.375.375.375.375.922 0 .546-.375.937-.36.375-.922.375zm7.978.172q-1.453 0-2.563-.813-1.094-.828-1.703-2.234-.594-1.406-.594-3.156 0-1.75.594-3.156.61-1.422 1.703-2.235 1.11-.812 2.563-.812t2.562.812q1.11.813 1.703 2.235.594 1.406.594 3.156 0 1.75-.594 3.156-.593 1.406-1.703 2.234-1.11.813-2.562.813zm0-1.766q.922 0 1.593-.578.672-.594 1.032-1.594.359-1 .359-2.265 0-1.266-.36-2.281-.359-1.016-1.03-1.579-.672-.578-1.594-.578-.907 0-1.578.578-.657.563-1.016 1.579-.36 1.015-.36 2.28 0 1.266.36 2.266t1.016 1.594q.671.578 1.578.578zm5.733 1.485zm8.35.28q-1.5 0-2.484-.655-.985-.672-1.375-1.72l1.671-.733q.313.718.891 1.093.578.36 1.297.36.75 0 1.25-.266t.5-.797q0-.484-.422-.765-.422-.297-1.328-.5l-1.063-.25q-1.046-.25-1.75-.907-.687-.672-.687-1.672 0-.765.453-1.343.469-.594 1.234-.907.782-.328 1.688-.328 1.25 0 2.172.485.937.484 1.36 1.422l-1.626.718q-.531-1.047-1.89-1.047-.657 0-1.094.282-.438.265-.438.687 0 .781 1.344 1.125l1.281.313q1.313.328 1.97.984.67.656.67 1.625 0 .828-.483 1.469-.47.625-1.313.984-.828.344-1.828.344zm9.373 0q-1.282 0-2.313-.608-1.031-.61-1.61-1.672-.577-1.063-.577-2.407 0-1.265.562-2.343.563-1.078 1.563-1.72 1.015-.64 2.28-.64 1.329 0 2.298.578.968.579 1.484 1.61.516 1.015.516 2.312 0 .344-.047.594h-6.828q.125 1.266.906 1.953.781.672 1.828.672.844 0 1.453-.39.61-.391.969-1.032l1.547.75q-.61 1.094-1.625 1.719-1 .625-2.406.625zm2.343-5.702q-.031-.485-.312-.969t-.813-.797q-.515-.328-1.297-.328-.937 0-1.593.578-.641.563-.891 1.516h4.906zm7.77 5.703q-1.329 0-2.376-.61-1.031-.609-1.61-1.671-.577-1.063-.577-2.422 0-1.344.578-2.406.578-1.079 1.61-1.672 1.046-.61 2.374-.61 1.453 0 2.453.657 1.016.64 1.47 1.78l-1.688.688q-.625-1.422-2.282-1.422-.718 0-1.343.375-.61.375-.97 1.063-.343.672-.343 1.547 0 .89.344 1.562.36.672.969 1.047.625.375 1.343.375.844 0 1.438-.375t.922-1.078l1.687.719q-.531 1.125-1.547 1.797-1.015.656-2.453.656z"/><path fill="none" d="M427.2 124.8h96v28.787h-96z"/><path fill="#434343" d="m451.979 135.99-1.938 1.39-.953-1.437 3.422-2.469h1.344v11.86h-1.875v-9.344zm5.646 9.453q-.547 0-.938-.375-.375-.39-.375-.937 0-.532.375-.907.391-.39.938-.39.563 0 .922.375.375.375.375.922 0 .546-.375.937-.36.375-.922.375zm7.212.172q-1.188 0-2.14-.469-.938-.469-1.485-1.281-.531-.813-.531-1.813 0-.984.53-1.734.532-.75 1.376-1.187v-.094q-.656-.406-1.094-1.078-.422-.672-.422-1.422 0-.938.485-1.703.5-.766 1.343-1.188.86-.437 1.938-.437 1.062 0 1.922.437.86.422 1.343 1.188.485.765.485 1.703 0 .75-.422 1.422-.422.672-1.078 1.078v.094q.828.437 1.36 1.187.53.75.53 1.734 0 1-.546 1.813-.532.812-1.485 1.281-.937.469-2.11.469zm0-7.313q.812 0 1.36-.468.546-.485.546-1.25 0-.766-.547-1.22-.547-.452-1.36-.452-.827 0-1.374.453-.547.453-.547 1.219 0 .765.547 1.25.547.468 1.375.468zm0 5.563q.969 0 1.61-.547.64-.547.64-1.422 0-.844-.64-1.375-.641-.547-1.61-.547-.969 0-1.625.547-.64.531-.64 1.375 0 .875.64 1.422.656.547 1.625.547zm4.922 1.469zm8.35.28q-1.5 0-2.484-.655-.985-.672-1.375-1.72l1.671-.733q.313.718.891 1.093.578.36 1.297.36.75 0 1.25-.266t.5-.797q0-.484-.422-.765-.422-.297-1.328-.5l-1.063-.25q-1.046-.25-1.75-.907-.687-.672-.687-1.672 0-.765.453-1.343.469-.594 1.234-.907.782-.328 1.688-.328 1.25 0 2.172.485.937.484 1.36 1.422l-1.626.718q-.531-1.047-1.89-1.047-.657 0-1.094.282-.438.265-.438.687 0 .781 1.344 1.125l1.281.313q1.313.328 1.969.984.672.656.672 1.625 0 .828-.484 1.469-.47.625-1.313.984-.828.344-1.828.344zm9.372 0q-1.28 0-2.312-.608-1.031-.61-1.61-1.672-.578-1.063-.578-2.407 0-1.265.563-2.343.562-1.078 1.562-1.72 1.016-.64 2.282-.64 1.328 0 2.297.578.968.579 1.484 1.61.516 1.015.516 2.312 0 .344-.047.594h-6.828q.125 1.266.906 1.953.781.672 1.828.672.844 0 1.453-.39.61-.391.969-1.032l1.547.75q-.61 1.094-1.625 1.719-1 .625-2.407.625zm2.344-5.702q-.031-.485-.312-.969-.282-.484-.813-.797-.515-.328-1.297-.328-.937 0-1.593.578-.641.563-.891 1.516h4.906zm7.77 5.703q-1.329 0-2.376-.61-1.031-.609-1.61-1.671-.577-1.063-.577-2.422 0-1.344.578-2.406.578-1.079 1.61-1.672 1.046-.61 2.374-.61 1.453 0 2.453.657 1.016.64 1.47 1.78l-1.688.688q-.625-1.422-2.282-1.422-.718 0-1.343.375-.61.375-.97 1.063-.343.672-.343 1.547 0 .89.344 1.562.36.672.969 1.047.625.375 1.343.375.844 0 1.438-.375t.922-1.078l1.687.719q-.531 1.125-1.547 1.797-1.015.656-2.453.656z"/><path fill="none" d="M474.885 125.747V96.96"/><path stroke="#434343" stroke-width="2" stroke-linejoin="round" stroke-linecap="butt" d="M474.885 125.747V104.54"/><path fill="#434343" stroke="#434343" stroke-width="2" stroke-linecap="butt" d="M474.885 97.96a3.29 3.29 0 1 1 0 6.58 3.29 3.29 0 0 1 0-6.58z"/><path fill="none" d="M28.8 129.6h268.787v38.394H28.8z"/><path fill="#666" d="M71.448 141.684h8.28v1.61h-6.577v4.906h5.937v1.594h-5.937v6.203h-1.703v-14.313zm11.091 2.235q-.5 0-.859-.36-.36-.359-.36-.859 0-.516.36-.86.36-.359.86-.359.515 0 .859.36.36.343.36.859 0 .5-.36.86-.344.359-.86.359zm-.843 1.875h1.703v10.203h-1.703v-10.203zm4.363 0h1.61v1.64h.078q.312-.843 1.172-1.39.86-.547 1.797-.547.703 0 1.203.203v1.844q-.64-.328-1.438-.328-.75 0-1.375.421-.61.422-.984 1.141-.375.703-.375 1.516v5.703h-1.688v-10.203zm10.647 10.515q-1.625 0-2.734-.765-1.094-.766-1.563-1.969l1.532-.672q.375.906 1.125 1.406.75.5 1.64.5.969 0 1.64-.375.688-.39.688-1.125 0-.625-.546-1.015-.532-.39-1.688-.672l-1.25-.328q-1.219-.297-2-1.016-.781-.719-.781-1.86 0-.874.531-1.546t1.406-1.031q.89-.36 1.907-.36 1.343 0 2.39.578 1.047.578 1.485 1.625l-1.47.672q-.687-1.36-2.421-1.36-.844 0-1.484.391-.625.391-.625.985 0 .562.437.922.453.343 1.328.562l1.485.375q1.5.39 2.25 1.14.765.75.765 1.829 0 .937-.547 1.656-.531.703-1.453 1.078-.922.375-2.047.375zm9.735-.156q-.625 0-1.156-.187-.531-.204-.89-.547-.797-.766-.797-2.11v-5.968h-1.782v-1.547h1.782v-2.875h1.703v2.875h2.5v1.547h-2.5v5.562q0 .828.312 1.234.375.438 1.094.438.625 0 1.125-.344v1.672q-.297.14-.61.188-.312.062-.78.062zm2.133-.156zm12.552.312q-2.078 0-3.781-.968-1.687-.985-2.656-2.688-.969-1.719-.969-3.812 0-2.11.969-3.813.969-1.719 2.656-2.687 1.703-.985 3.781-.985 1.61 0 2.938.61 1.328.593 2.312 1.734l-1.218 1.172q-.829-.969-1.797-1.422-.97-.469-2.235-.469-1.547 0-2.86.735-1.296.718-2.062 2.046-.765 1.329-.765 3.079 0 1.734.765 3.062.766 1.328 2.063 2.063 1.312.734 2.86.734 2.609 0 4.421-2.14l1.25 1.202q-.984 1.172-2.453 1.86-1.469.687-3.219.687zm12.06 0q-1.5 0-2.702-.718-1.188-.72-1.86-1.954-.672-1.234-.672-2.734t.672-2.734q.672-1.25 1.86-1.969 1.203-.719 2.703-.719 1.5 0 2.703.719 1.203.719 1.875 1.969.672 1.234.672 2.734t-.672 2.734q-.672 1.235-1.875 1.954-1.203.718-2.703.718zm0-1.53q.954 0 1.75-.47.813-.468 1.298-1.343.5-.891.5-2.063 0-1.187-.5-2.062-.485-.891-1.297-1.36-.797-.469-1.75-.469-.938 0-1.766.47-.812.468-1.297 1.359-.484.875-.484 2.062 0 1.172.484 2.063.485.875 1.297 1.343.828.47 1.766.47zm7.033-8.985h1.61v1.5h.078q.422-.75 1.344-1.282.921-.53 1.968-.53 1.828 0 2.797 1.077.985 1.063.985 2.891v6.547h-1.704v-6.281q0-1.422-.687-2.063-.672-.64-1.86-.64-.812 0-1.468.468-.64.453-1.016 1.203-.36.75-.36 1.578v5.735h-1.687v-10.203zm14.642 10.36q-.625 0-1.156-.188-.531-.204-.89-.547-.798-.766-.798-2.11v-5.968h-1.78v-1.547h1.78v-2.875h1.704v2.875h2.5v1.547h-2.5v5.562q0 .828.312 1.234.375.438 1.094.438.625 0 1.125-.344v1.672q-.297.14-.61.188-.312.062-.78.062zm7.49.155q-1.454 0-2.625-.687-1.157-.703-1.813-1.938-.64-1.234-.64-2.765 0-1.469.609-2.719.61-1.25 1.734-1.984 1.14-.735 2.594-.735 1.5 0 2.594.672 1.11.656 1.703 1.844.594 1.187.594 2.703 0 .234-.047.516h-8.078q.062 1.156.562 1.968.5.797 1.266 1.203.765.391 1.61.391 2 0 3.015-1.844l1.437.703q-.625 1.22-1.765 1.954-1.141.718-2.75.718zm2.937-6.5q-.031-.625-.36-1.265-.312-.64-1-1.078-.671-.454-1.718-.454-1.203 0-2.047.782-.828.765-1.094 2.015h6.22zm3.791-4.015h1.61v1.5h.078q.422-.75 1.344-1.282.921-.53 1.968-.53 1.828 0 2.797 1.077.985 1.063.985 2.891v6.547h-1.704v-6.281q0-1.422-.687-2.063-.672-.64-1.86-.64-.812 0-1.468.468-.64.453-1.016 1.203-.36.75-.36 1.578v5.735h-1.687v-10.203zm14.642 10.36q-.625 0-1.156-.188-.531-.204-.89-.547-.798-.766-.798-2.11v-5.968h-1.78v-1.547h1.78v-2.875h1.704v2.875h4.64V144.7q0-.969.422-1.688.438-.718 1.188-1.109.75-.39 1.64-.39.828 0 1.5.25v1.656q-.39-.157-.703-.235-.312-.093-.75-.093-.672 0-1.156.484-.469.469-.469 1.297v.922h2.625v1.547h-2.625v8.656h-1.672v-8.656h-4.64v5.562q0 .828.312 1.234.375.438 1.094.438.625 0 1.125-.344v1.672q-.297.14-.61.188-.312.062-.78.062zm13.386.155q-1.828 0-2.797-1.078-.969-1.078-.969-3.015v-6.422h1.688v6.156q0 1.469.656 2.156.672.672 1.781.672.875 0 1.531-.453.672-.469 1.047-1.203.375-.75.375-1.563v-5.765h1.688v10.203h-1.61v-1.485h-.078q-.422.766-1.343 1.282-.922.515-1.97.515zm7.532-14.625h1.688v14.313h-1.688v-14.313zm2.955 14.313zm6.233-14.313h4.829q1.203 0 2.218.547 1.016.531 1.625 1.5.61.969.61 2.188 0 1.218-.61 2.187-.61.969-1.625 1.516-1.015.531-2.218.531h-3.125v5.844h-1.704v-14.313zm4.86 6.86q.812 0 1.422-.375.609-.39.937-.985.344-.609.344-1.265 0-.657-.344-1.25-.328-.61-.937-.985-.61-.39-1.422-.39h-3.156v5.25h3.156zm9.182 7.765q-1.11 0-2-.437-.875-.438-1.36-1.203-.468-.766-.468-1.75 0-1.625 1.219-2.532 1.219-.906 3.078-.906.922 0 1.703.203.797.188 1.219.453v-.625q0-1.14-.813-1.828-.796-.687-2.015-.687-.844 0-1.578.375-.72.36-1.141 1.031l-1.281-.969q.61-.922 1.656-1.437 1.063-.516 2.344-.516 2.078 0 3.25 1.094 1.187 1.078 1.187 2.969v6.453h-1.61v-1.453h-.093q-.437.734-1.312 1.25-.875.515-1.985.515zm.172-1.5q.86 0 1.594-.437.734-.438 1.172-1.172.453-.75.453-1.625-.484-.313-1.188-.516-.703-.203-1.484-.203-1.39 0-2.11.578-.702.578-.702 1.5 0 .844.64 1.36.64.515 1.625.515zm8.198-10.89q-.5 0-.86-.36-.358-.359-.358-.859 0-.516.359-.86.36-.359.86-.359.515 0 .859.36.359.343.359.859 0 .5-.36.86-.343.359-.859.359zm-.843 1.875h1.703v10.203h-1.703v-10.203zm4.363 0h1.61v1.5h.078q.422-.75 1.344-1.282.921-.53 1.968-.53 1.828 0 2.797 1.077.985 1.063.985 2.891v6.547h-1.704v-6.281q0-1.422-.687-2.063-.672-.64-1.86-.64-.812 0-1.468.468-.64.453-1.016 1.203-.36.75-.36 1.578v5.735h-1.687v-10.203zm14.642 10.36q-.625 0-1.156-.188-.531-.204-.89-.547-.798-.766-.798-2.11v-5.968h-1.78v-1.547h1.78v-2.875h1.704v2.875h2.5v1.547h-2.5v5.562q0 .828.312 1.234.375.438 1.094.438.625 0 1.125-.344v1.672q-.297.14-.61.188-.312.062-.78.062z"/><path fill="none" d="M600 125.628V97.06"/><path stroke="#434343" stroke-width="2" stroke-linejoin="round" stroke-linecap="butt" d="M600 125.628V104.64"/><path fill="#434343" stroke="#434343" stroke-width="2" stroke-linecap="butt" d="M600 98.06a3.29 3.29 0 1 1 0 6.58 3.29 3.29 0 0 1 0-6.58z"/></g></svg>